<svg width="24" height="24" viewBox="0 0 24 24" fill="none" xmlns="http://www.w3.org/2000/svg">
  <path
    d="M15.5289 12.1127C15.5289 14.0601 13.9553 15.6338 12.0079 15.6338C10.0605 15.6338 8.48682 14.0601 8.48682 12.1127C8.48682 10.1653 10.0605 8.59167 12.0079 8.59167C13.9553 8.59167 15.5289 10.1653 15.5289 12.1127Z"
    stroke="#292D32" stroke-width="1.47531" stroke-linecap="round" stroke-linejoin="round" />
  <path
    d="M12.0079 20.2467C15.4798 20.2467 18.7157 18.2009 20.968 14.6602C21.8532 13.2734 21.8532 10.9424 20.968 9.55561C18.7157 6.01487 15.4798 3.96912 12.0079 3.96912C8.53606 3.96912 5.30022 6.01487 3.04792 9.55561C2.16274 10.9424 2.16274 13.2734 3.04792 14.6602C5.30022 18.2009 8.53606 20.2467 12.0079 20.2467Z"
    stroke="#292D32" stroke-width="1.47531" stroke-linecap="round" stroke-linejoin="round" />
</svg>
  