<svg width="15" height="16" viewBox="0 0 15 16" fill="none" xmlns="http://www.w3.org/2000/svg">
  <path d="M8.71397 1.41659L10.0122 4.01313C10.1893 4.36721 10.6614 4.72128 11.0548 4.78029L13.4054 5.17371C14.9103 5.42943 15.2643 6.51132 14.1824 7.59321L12.3531 9.43242C12.0482 9.73732 11.8711 10.3373 11.9695 10.77L12.4908 13.042C12.9038 14.832 11.9498 15.5304 10.3663 14.596L8.16319 13.2879C7.75994 13.0518 7.11081 13.0518 6.70756 13.2879L4.4946 14.5862C2.9111 15.5205 1.95707 14.8222 2.37016 13.0322L2.89143 10.7602C2.98979 10.3373 2.81275 9.73732 2.50785 9.42259L0.688308 7.60304C-0.393584 6.52115 -0.0395099 5.42943 1.4653 5.18354L3.81596 4.79013C4.20937 4.72128 4.68147 4.37704 4.85851 4.02297L6.15678 1.42643C6.85509 0.0101353 8.01566 0.0101351 8.71397 1.41659Z" fill="#ACACAC"/>
  </svg>
  